<svg width="31" height="26" viewBox="0 0 31 26" fill="none" xmlns="http://www.w3.org/2000/svg">
<path d="M9.75017 20.5C9.75017 22 7.71617 25 7.00217 25C4.85867 25 2.95517 22.4995 2.00267 20.5C1.05017 17.9995 1.28867 11.7505 4.14467 3.25C6.22667 1.7275 8.31767 1.24 10.5002 1L11.9627 3.8845C13.9743 3.53724 16.0305 3.53724 18.0422 3.8845L19.5002 1C21.7502 1.24 24.0647 1.7275 26.2502 3.25C29.2502 11.7505 29.5007 17.9995 28.5002 20.5C27.4997 22.4995 25.5002 25 23.2502 25C22.5002 25 20.2502 22 20.2502 20.5M7.50016 19.75C12.7502 21.25 17.2502 21.25 22.5002 19.75M9.00016 13C9.00016 13.3978 9.1582 13.7794 9.4395 14.0607C9.7208 14.342 10.1023 14.5 10.5002 14.5C10.898 14.5 11.2795 14.342 11.5608 14.0607C11.8421 13.7794 12.0002 13.3978 12.0002 13C12.0002 12.6022 11.8421 12.2206 11.5608 11.9393C11.2795 11.658 10.898 11.5 10.5002 11.5C10.1023 11.5 9.7208 11.658 9.4395 11.9393C9.1582 12.2206 9.00016 12.6022 9.00016 13ZM18.0002 13C18.0002 13.3978 18.1582 13.7794 18.4395 14.0607C18.7208 14.342 19.1023 14.5 19.5002 14.5C19.898 14.5 20.2795 14.342 20.5608 14.0607C20.8421 13.7794 21.0002 13.3978 21.0002 13C21.0002 12.6022 20.8421 12.2206 20.5608 11.9393C20.2795 11.658 19.898 11.5 19.5002 11.5C19.1023 11.5 18.7208 11.658 18.4395 11.9393C18.1582 12.2206 18.0002 12.6022 18.0002 13Z" stroke="#78716C" stroke-width="2" stroke-linecap="round" stroke-linejoin="round"/>
</svg>
