<svg width="26" height="26" viewBox="0 0 26 26" fill="none" xmlns="http://www.w3.org/2000/svg">
<path d="M19.75 6.25V6.265M1 7C1 5.4087 1.63214 3.88258 2.75736 2.75736C3.88258 1.63214 5.4087 1 7 1H19C20.5913 1 22.1174 1.63214 23.2426 2.75736C24.3679 3.88258 25 5.4087 25 7V19C25 20.5913 24.3679 22.1174 23.2426 23.2426C22.1174 24.3679 20.5913 25 19 25H7C5.4087 25 3.88258 24.3679 2.75736 23.2426C1.63214 22.1174 1 20.5913 1 19V7ZM8.5 13C8.5 14.1935 8.97411 15.3381 9.81802 16.182C10.6619 17.0259 11.8065 17.5 13 17.5C14.1935 17.5 15.3381 17.0259 16.182 16.182C17.0259 15.3381 17.5 14.1935 17.5 13C17.5 11.8065 17.0259 10.6619 16.182 9.81802C15.3381 8.97411 14.1935 8.5 13 8.5C11.8065 8.5 10.6619 8.97411 9.81802 9.81802C8.97411 10.6619 8.5 11.8065 8.5 13Z" stroke="#78716C" stroke-width="2" stroke-linecap="round" stroke-linejoin="round"/>
</svg>
