<svg width="26" height="26" viewBox="0 0 26 26" fill="none" xmlns="http://www.w3.org/2000/svg">
<path d="M7 11.5V19M7 7V7.015M13 19V11.5M19 19V14.5C19 13.7044 18.6839 12.9413 18.1213 12.3787C17.5587 11.8161 16.7956 11.5 16 11.5C15.2044 11.5 14.4413 11.8161 13.8787 12.3787C13.3161 12.9413 13 13.7044 13 14.5M1 4C1 3.20435 1.31607 2.44129 1.87868 1.87868C2.44129 1.31607 3.20435 1 4 1H22C22.7956 1 23.5587 1.31607 24.1213 1.87868C24.6839 2.44129 25 3.20435 25 4V22C25 22.7956 24.6839 23.5587 24.1213 24.1213C23.5587 24.6839 22.7956 25 22 25H4C3.20435 25 2.44129 24.6839 1.87868 24.1213C1.31607 23.5587 1 22.7956 1 22V4Z" stroke="#78716C" stroke-width="2" stroke-linecap="round" stroke-linejoin="round"/>
</svg>
