<svg width="30" height="30" viewBox="0 0 30 30" fill="none" xmlns="http://www.w3.org/2000/svg">
<path d="M28.5 8.8755V14.9265C25.7791 14.6566 23.1847 13.6442 21 12V18.75C20.9996 20.5817 20.4832 22.3762 19.51 23.928C18.5369 25.4798 17.1462 26.7261 15.4975 27.524C13.8487 28.322 12.0086 28.6394 10.1878 28.4398C8.36699 28.2402 6.63923 27.5318 5.20246 26.3957C3.76569 25.2596 2.67801 23.7417 2.06404 22.016C1.45007 20.2902 1.33464 18.4264 1.73098 16.6381C2.12732 14.8498 3.0194 13.2094 4.305 11.9046C5.59061 10.5999 7.21775 9.6837 9 9.261V15.75C8.48863 16.1335 8.08379 16.6414 7.82391 17.2254C7.56403 17.8094 7.45775 18.4501 7.51515 19.0868C7.57256 19.7234 7.79175 20.3348 8.1519 20.8629C8.51205 21.391 9.00122 21.8182 9.57295 22.1041C10.1447 22.39 10.78 22.5249 11.4186 22.4962C12.0571 22.4675 12.6777 22.276 13.2215 21.9399C13.7652 21.6039 14.2141 21.1344 14.5253 20.5761C14.8366 20.0178 15 19.3892 15 18.75V1.5H21.1245C21.4368 3.3426 22.3146 5.04244 23.6361 6.36394C24.9576 7.68544 26.6574 8.56317 28.5 8.8755Z" stroke="#78716C" stroke-width="2" stroke-linecap="round" stroke-linejoin="round"/>
</svg>
