<svg width="30" height="24" viewBox="0 0 30 24" fill="none" xmlns="http://www.w3.org/2000/svg">
<path d="M1.5 7.5C1.5 5.9087 2.13214 4.38258 3.25736 3.25736C4.38258 2.13214 5.9087 1.5 7.5 1.5H22.5C24.0913 1.5 25.6174 2.13214 26.7426 3.25736C27.8679 4.38258 28.5 5.9087 28.5 7.5V16.5C28.5 18.0913 27.8679 19.6174 26.7426 20.7426C25.6174 21.8679 24.0913 22.5 22.5 22.5H7.5C5.9087 22.5 4.38258 21.8679 3.25736 20.7426C2.13214 19.6174 1.5 18.0913 1.5 16.5V7.5Z" stroke="#78716C" stroke-width="2" stroke-linecap="round" stroke-linejoin="round"/>
<path d="M12 7.5L19.5 12L12 16.5V7.5Z" stroke="#78716C" stroke-width="2" stroke-linecap="round" stroke-linejoin="round"/>
</svg>
